<svg xmlns="http://www.w3.org/2000/svg" width="430" height="430" style="width:100%;height:100%;transform:translate3d(0,0,0);content-visibility:visible" viewBox="0 0 430 430"><defs><clipPath id="c"><path d="M0 0h430v430H0z"/></clipPath><clipPath id="g"><path d="M0 0h430v430H0z"/></clipPath><clipPath id="f"><path d="M0 0h430v430H0z"/></clipPath><clipPath id="d"><path d="M0 0h430v430H0z"/></clipPath><filter id="a" width="100%" height="100%" x="0%" y="0%" filterUnits="objectBoundingBox"><feComponentTransfer in="SourceGraphic"><feFuncA tableValues="1.0 0.0" type="table"/></feComponentTransfer></filter><path id="b" style="display:none"/><mask id="e" mask-type="alpha"><g filter="url(#a)"><path fill="#fff" d="M0 0h430v430H0z" opacity="0"/><use xmlns:ns1="http://www.w3.org/1999/xlink" ns1:href="#b"/></g></mask></defs><g clip-path="url(#c)"><g clip-path="url(#d)" style="display:none"><g style="display:none"><path class="secondary"/><path class="secondary" style="mix-blend-mode:multiply"/><path class="secondary"/><path fill="none" class="primary"/><path fill="none" class="primary"/></g><g mask="url(#e)" style="display:none"><path class="tertiary"/><path class="tertiary" style="mix-blend-mode:multiply"/><path fill="none" class="primary"/></g><g style="display:none"><path class="tertiary"/><path class="tertiary" style="mix-blend-mode:multiply"/><path fill="none" class="primary"/></g><path fill="none" class="primary" style="display:none"/></g><g clip-path="url(#f)" style="display:block"><g style="display:block"><g fill="#4BB3FD"><path d="m375.09 286.762-10.884 7h-66.141a66.06 66.06 0 0 1-23.036 34.25 66.074 66.074 0 0 1-40.682 13.98h-36.353c-29.704 0-55.699-19.77-63.718-48.23H65.908l-10.936-7 73.836-114.26a20.001 20.001 0 0 1 16.796-9.14h138.854c6.788 0 13.107 3.44 16.796 9.14l73.836 114.26z" class="secondary"/><path fill-opacity=".6" d="m160.059 34.085-10.884 7H83.034a66.06 66.06 0 0 1-23.036 34.25 66.074 66.074 0 0 1-40.682 13.98h-36.353c-29.704 0-55.699-19.77-63.718-48.23h-68.368l-10.936-7 73.836-114.26a20.001 20.001 0 0 1 16.796-9.14H69.427c6.788 0 13.107 3.44 16.796 9.14l73.836 114.26z" class="secondary" style="mix-blend-mode:multiply" transform="translate(215.031 252.677)"/></g><path fill="#4BB3FD" d="M375.09 286.77c-.01 4.25-.03 20.49-.06 39.61v5.75c-.03 22.08-17.98 40-40.06 40H94.85c-22.08 0-39.97-17.92-39.94-40l.01-6c.03-18.9.04-34.94.05-39.36h79.26c8.02 28.46 34.02 48.23 63.73 48.23h36.36c15.16 0 29.36-5.15 40.69-13.98a66.06 66.06 0 0 0 23.04-34.25h77.04z" class="secondary"/><path fill="none" stroke="#121331" stroke-linecap="round" stroke-linejoin="round" stroke-width="7" d="m54.972 286.762 73.836-114.26a20.001 20.001 0 0 1 16.796-9.14h138.854c6.788 0 13.107 3.44 16.796 9.14l73.836 114.26m0 .008c-.01 4.25-.03 20.49-.06 39.61v5.75c-.03 22.08-17.98 40-40.06 40H94.85c-22.08 0-39.97-17.92-39.94-40l.01-6c.03-18.9.04-34.94.05-39.36h79.26c8.02 28.46 34.02 48.23 63.73 48.23h36.36c15.16 0 29.36-5.15 40.69-13.98a66.06 66.06 0 0 0 23.04-34.25h77.04z" class="primary"/></g><g style="display:block"><path fill="#FFC738" d="M274.171 194.964 220.102 265.8c-2.392 3.134-7.106 3.149-9.517.029l-54.753-70.846c-2.032-2.629-.159-6.446 3.164-6.446h25.279a2 2 0 0 0 2-2l.033-114.237c0-5.523 4.477-10 10-10h37.376c5.523 0 10 4.477 10 10l-.033 114.237a2 2 0 0 0 2 2h25.341c3.312 0 5.188 3.794 3.179 6.427z" class="tertiary"/><path fill="#FFC738" d="m29.984 102.92.033-205.84H11.298c-5.52 0-10 4.48-10 10L1.264 21.32a2 2 0 0 1-2 2h-25.27c-3.33 0-5.2 3.82-3.17 6.45l54.76 70.84a5.862 5.862 0 0 0 4.4 2.31z" class="tertiary" opacity=".5" style="mix-blend-mode:multiply" transform="translate(185.006 165.218)"/><path fill="none" stroke="#121331" stroke-linecap="square" stroke-linejoin="round" stroke-width="7" d="M274.171 194.964 220.102 265.8c-2.392 3.134-7.106 3.149-9.517.029l-54.753-70.846c-2.032-2.629-.159-6.446 3.164-6.446h25.279a2 2 0 0 0 2-2l.033-114.237c0-5.523 4.477-10 10-10h37.376c5.523 0 10 4.477 10 10l-.033 114.237a2 2 0 0 0 2 2h25.341c3.312 0 5.188 3.794 3.179 6.427z" class="primary"/></g></g><g clip-path="url(#g)" style="display:none"><g style="display:none"><path class="secondary"/><path class="secondary" style="mix-blend-mode:multiply"/><path fill="none" class="primary"/><path class="secondary"/><path fill="none" class="primary"/></g><g style="display:none"><path class="tertiary"/><path class="tertiary" style="mix-blend-mode:multiply"/><path fill="none" class="primary"/></g></g></g></svg>